<svg width="156" height="32" viewBox="0 0 156 32" fill="none" xmlns="http://www.w3.org/2000/svg">
<g clip-path="url(#clip0_1995_12027)">
<path d="M28.0934 18.5422L31.9647 21.8012C30.2365 22.7654 28.2897 23.2699 26.3108 23.2662C19.8871 23.2662 14.6787 18.0585 14.6787 11.6337C14.6787 5.20895 19.8871 0.000137524 26.3108 0.000137524C28.7679 -0.00387653 31.1627 0.774161 33.1483 2.22163L29.5311 5.26585C28.5332 4.75981 27.4297 4.49712 26.3108 4.49924C22.3717 4.49924 19.1786 7.69507 19.1786 11.6314C19.1786 15.5677 22.3744 18.7663 26.3108 18.7663C26.9117 18.7669 27.5103 18.6912 28.0922 18.541L28.0934 18.5422Z" fill="url(#paint0_linear_1995_12027)"/>
<path d="M14.5812 23.493C14.5812 23.493 14.679 22.2595 14.679 21.1004C14.679 19.9413 15.9051 22.9805 15.9051 22.9805L14.679 23.9883L14.5812 23.493ZM26.3122 0.000137524C19.8874 0.000137524 14.679 5.20778 14.679 11.6337V11.6454H19.1777V11.6337C19.1777 7.69468 22.3736 4.50158 26.3099 4.50158C27.4288 4.49945 28.5323 4.76215 29.5303 5.26819L33.1486 2.22163C31.163 0.774161 28.7682 -0.00387653 26.3111 0.000137524H26.3122ZM19.1536 22.9805C18.7724 28.0252 14.559 32.0005 9.41758 32.0005C4.92588 32.0005 1.14115 28.9676 0.00390625 24.8384L3.79136 21.7306C3.79152 23.0905 4.29198 24.4028 5.19737 25.4174C6.10276 26.4321 7.34979 27.0782 8.70087 27.2326C10.0519 27.3871 11.4126 27.039 12.5236 26.2549C13.6346 25.4707 14.4183 24.3052 14.7254 22.9805H19.1536ZM19.1777 11.6443V20.8225C19.1387 20.7937 19.1045 20.7648 19.0682 20.736C18.8648 19.4238 18.3956 18.1669 17.6895 17.0423C16.9834 15.9178 16.0551 14.9492 14.9616 14.1959C14.7739 13.3587 14.6792 12.5034 14.679 11.6454L19.1777 11.6443ZM19.069 20.736C16.9952 19.0871 15.5462 16.7799 14.9616 14.1959C16.0553 14.9491 16.9837 15.9176 17.6899 17.0422C18.3962 18.1668 18.8655 19.4237 19.069 20.736ZM19.1785 21.9442V22.5229C19.1742 22.6761 19.1656 22.8289 19.1543 22.9805H14.7266C14.9301 22.0936 14.9138 21.1704 14.679 20.2913V11.6337C14.7741 11.6957 14.8692 14.1308 14.9616 14.1959C15.5536 16.8246 17.1441 19.2016 19.1777 20.8214L19.1785 21.9442ZM16.0957 21.4239L14.679 24.2389V20.2913L16.0957 21.4239Z" fill="url(#paint1_linear_1995_12027)"/>
</g>
<path d="M49.2163 23.38C48.8537 23.38 48.539 23.3107 48.2723 23.172C48.0057 23.044 47.803 22.8467 47.6643 22.58C47.5363 22.3133 47.4723 21.988 47.4723 21.604V18.212C47.4723 17.7747 47.387 17.4547 47.2163 17.252C47.0563 17.0493 46.7577 16.9427 46.3203 16.932C46.1603 16.932 46.027 16.868 45.9203 16.74C45.8243 16.612 45.7763 16.4627 45.7763 16.292C45.7763 16.1107 45.8243 15.9613 45.9203 15.844C46.027 15.7267 46.1603 15.6627 46.3203 15.652C46.7577 15.6413 47.0563 15.5347 47.2163 15.332C47.387 15.1293 47.4723 14.8147 47.4723 14.388V10.996C47.4723 10.42 47.6217 9.98267 47.9203 9.684C48.2297 9.37467 48.6617 9.22 49.2163 9.22H50.3523C50.555 9.22 50.7203 9.27867 50.8483 9.396C50.9763 9.51333 51.0403 9.66267 51.0403 9.844C51.0403 10.0147 50.9817 10.164 50.8643 10.292C50.7577 10.4093 50.619 10.468 50.4483 10.468H49.7443C49.531 10.468 49.3657 10.5267 49.2483 10.644C49.1417 10.7613 49.0883 10.9373 49.0883 11.172V14.564C49.0883 14.884 49.019 15.1827 48.8803 15.46C48.7523 15.7267 48.5763 15.94 48.3523 16.1C48.1283 16.26 47.8777 16.34 47.6003 16.34V16.276C47.8777 16.276 48.1283 16.356 48.3523 16.516C48.5763 16.6653 48.7523 16.8733 48.8803 17.14C49.019 17.4067 49.0883 17.7053 49.0883 18.036V21.428C49.0883 21.6627 49.1417 21.8387 49.2483 21.956C49.3657 22.0733 49.531 22.132 49.7443 22.132H50.4483C50.619 22.132 50.7577 22.1907 50.8643 22.308C50.9817 22.436 51.0403 22.5853 51.0403 22.756C51.0403 22.9373 50.9763 23.0867 50.8483 23.204C50.7203 23.3213 50.555 23.38 50.3523 23.38H49.2163Z" fill="#808386"/>
<path d="M57.2243 20.644C56.7337 20.644 56.2537 20.6067 55.7843 20.532C55.315 20.4573 54.8723 20.3453 54.4563 20.196C54.0403 20.036 53.667 19.844 53.3363 19.62C53.1763 19.5027 53.0643 19.3693 53.0003 19.22C52.947 19.0707 52.931 18.9267 52.9523 18.788C52.9843 18.6387 53.0483 18.5107 53.1443 18.404C53.2403 18.2973 53.3577 18.2333 53.4963 18.212C53.635 18.18 53.7897 18.2227 53.9603 18.34C54.4403 18.6493 54.947 18.8787 55.4803 19.028C56.0137 19.1667 56.595 19.236 57.2243 19.236C58.131 19.236 58.7977 19.076 59.2243 18.756C59.6617 18.4253 59.8803 17.9987 59.8803 17.476C59.8803 17.0493 59.7257 16.7133 59.4163 16.468C59.107 16.212 58.5897 16.0093 57.8643 15.86L56.1523 15.508C55.139 15.2947 54.3817 14.9427 53.8803 14.452C53.3897 13.9613 53.1443 13.3 53.1443 12.468C53.1443 11.9667 53.2457 11.508 53.4483 11.092C53.6617 10.676 53.955 10.3187 54.3283 10.02C54.7017 9.71067 55.1497 9.476 55.6723 9.316C56.195 9.156 56.7657 9.076 57.3843 9.076C58.0457 9.076 58.6643 9.16133 59.2403 9.332C59.827 9.50267 60.3497 9.764 60.8083 10.116C60.947 10.212 61.0377 10.3347 61.0803 10.484C61.1337 10.6227 61.1443 10.7613 61.1123 10.9C61.091 11.0387 61.0323 11.156 60.9363 11.252C60.8403 11.348 60.7177 11.4067 60.5683 11.428C60.419 11.4387 60.2537 11.3853 60.0723 11.268C59.6563 10.9907 59.2297 10.7933 58.7923 10.676C58.3657 10.548 57.891 10.484 57.3683 10.484C56.8457 10.484 56.387 10.564 55.9923 10.724C55.6083 10.884 55.3097 11.108 55.0963 11.396C54.8937 11.684 54.7923 12.0253 54.7923 12.42C54.7923 12.868 54.9363 13.2253 55.2243 13.492C55.5123 13.7587 55.9923 13.9613 56.6643 14.1L58.3603 14.452C59.427 14.676 60.2217 15.0227 60.7443 15.492C61.267 15.9613 61.5283 16.5853 61.5283 17.364C61.5283 17.8653 61.427 18.3187 61.2243 18.724C61.0217 19.1187 60.7337 19.46 60.3603 19.748C59.987 20.036 59.5337 20.26 59.0003 20.42C58.4777 20.5693 57.8857 20.644 57.2243 20.644ZM66.5226 20.644C65.8826 20.644 65.3439 20.532 64.9066 20.308C64.4693 20.084 64.1439 19.7533 63.9306 19.316C63.7173 18.8787 63.6106 18.3453 63.6106 17.716V13.94H62.6506C62.4373 13.94 62.2719 13.8867 62.1546 13.78C62.0373 13.6627 61.9786 13.508 61.9786 13.316C61.9786 13.1133 62.0373 12.9587 62.1546 12.852C62.2719 12.7453 62.4373 12.692 62.6506 12.692H63.6106V11.044C63.6106 10.7773 63.6799 10.5747 63.8186 10.436C63.9679 10.2973 64.1706 10.228 64.4266 10.228C64.6826 10.228 64.8799 10.2973 65.0186 10.436C65.1573 10.5747 65.2266 10.7773 65.2266 11.044V12.692H67.0986C67.3119 12.692 67.4773 12.7453 67.5946 12.852C67.7119 12.9587 67.7706 13.1133 67.7706 13.316C67.7706 13.508 67.7119 13.6627 67.5946 13.78C67.4773 13.8867 67.3119 13.94 67.0986 13.94H65.2266V17.588C65.2266 18.1533 65.3439 18.58 65.5786 18.868C65.8239 19.156 66.2186 19.3 66.7626 19.3C66.9546 19.3 67.1199 19.284 67.2586 19.252C67.4079 19.2093 67.5306 19.1827 67.6266 19.172C67.7439 19.172 67.8399 19.2147 67.9146 19.3C67.9893 19.3747 68.0266 19.524 68.0266 19.748C68.0266 19.908 67.9946 20.0573 67.9306 20.196C67.8773 20.3347 67.7759 20.4253 67.6266 20.468C67.4986 20.5107 67.3226 20.548 67.0986 20.58C66.8853 20.6227 66.6933 20.644 66.5226 20.644ZM71.5343 20.644C70.9903 20.644 70.4997 20.5373 70.0623 20.324C69.6357 20.1107 69.2997 19.8227 69.0543 19.46C68.809 19.0973 68.6863 18.6867 68.6863 18.228C68.6863 17.652 68.8303 17.1987 69.1183 16.868C69.417 16.5267 69.9023 16.2867 70.5743 16.148C71.257 15.9987 72.1743 15.924 73.3263 15.924H74.0783V16.916H73.3423C72.5743 16.916 71.9663 16.9533 71.5183 17.028C71.0703 17.1027 70.7503 17.2307 70.5583 17.412C70.377 17.5827 70.2863 17.8227 70.2863 18.132C70.2863 18.5373 70.425 18.868 70.7023 19.124C70.9797 19.3693 71.3637 19.492 71.8543 19.492C72.249 19.492 72.5957 19.4013 72.8943 19.22C73.193 19.028 73.4277 18.772 73.5983 18.452C73.7797 18.132 73.8703 17.764 73.8703 17.348V15.508C73.8703 14.9 73.7423 14.4627 73.4863 14.196C73.2303 13.9293 72.809 13.796 72.2223 13.796C71.881 13.796 71.5237 13.8387 71.1503 13.924C70.7877 14.0093 70.409 14.1533 70.0143 14.356C69.833 14.4413 69.6783 14.468 69.5503 14.436C69.4223 14.404 69.321 14.3347 69.2463 14.228C69.1717 14.1107 69.129 13.988 69.1183 13.86C69.1183 13.7213 69.1503 13.588 69.2143 13.46C69.289 13.332 69.4117 13.236 69.5823 13.172C70.0517 12.948 70.5157 12.788 70.9743 12.692C71.433 12.596 71.865 12.548 72.2703 12.548C72.985 12.548 73.5717 12.66 74.0303 12.884C74.4997 13.108 74.8463 13.4493 75.0703 13.908C75.2943 14.3667 75.4063 14.9587 75.4063 15.684V19.796C75.4063 20.052 75.3423 20.2547 75.2143 20.404C75.0863 20.5427 74.8997 20.612 74.6543 20.612C74.4197 20.612 74.233 20.5427 74.0943 20.404C73.9557 20.2547 73.8863 20.052 73.8863 19.796V18.756H74.0303C73.945 19.1507 73.785 19.492 73.5503 19.78C73.3263 20.0573 73.0437 20.2707 72.7023 20.42C72.361 20.5693 71.9717 20.644 71.5343 20.644ZM81.1681 23.524C80.5921 23.524 80.0321 23.4653 79.4881 23.348C78.9548 23.2307 78.4694 23.0387 78.0321 22.772C77.8721 22.6867 77.7654 22.58 77.7121 22.452C77.6588 22.3347 77.6428 22.212 77.6641 22.084C77.6961 21.956 77.7548 21.844 77.8401 21.748C77.9254 21.652 78.0268 21.588 78.1441 21.556C78.2721 21.524 78.4054 21.5453 78.5441 21.62C79.0134 21.876 79.4561 22.0467 79.8721 22.132C80.2988 22.228 80.6934 22.276 81.0561 22.276C81.8028 22.276 82.3628 22.084 82.7361 21.7C83.1094 21.3267 83.2961 20.772 83.2961 20.036V18.404H83.4401C83.2801 18.9907 82.9441 19.4547 82.4321 19.796C81.9201 20.1373 81.3281 20.308 80.6561 20.308C79.9521 20.308 79.3388 20.148 78.8161 19.828C78.2934 19.4973 77.8881 19.044 77.6001 18.468C77.3121 17.8813 77.1681 17.1987 77.1681 16.42C77.1681 15.8333 77.2481 15.3053 77.4081 14.836C77.5788 14.3667 77.8134 13.9613 78.1121 13.62C78.4214 13.2787 78.7894 13.0173 79.2161 12.836C79.6534 12.644 80.1334 12.548 80.6561 12.548C81.3388 12.548 81.9308 12.7187 82.4321 13.06C82.9441 13.4013 83.2748 13.8653 83.4241 14.452L83.2641 14.724V13.396C83.2641 13.1293 83.3334 12.9267 83.4721 12.788C83.6214 12.6493 83.8188 12.58 84.0641 12.58C84.3201 12.58 84.5174 12.6493 84.6561 12.788C84.7948 12.9267 84.8641 13.1293 84.8641 13.396V19.844C84.8641 21.06 84.5494 21.9773 83.9201 22.596C83.2908 23.2147 82.3734 23.524 81.1681 23.524ZM81.0401 19.044C81.5094 19.044 81.9094 18.9373 82.2401 18.724C82.5708 18.5107 82.8268 18.2067 83.0081 17.812C83.1894 17.4173 83.2801 16.9533 83.2801 16.42C83.2801 15.62 83.0774 14.9853 82.6721 14.516C82.2774 14.0467 81.7334 13.812 81.0401 13.812C80.5814 13.812 80.1868 13.9187 79.8561 14.132C79.5254 14.3453 79.2641 14.6493 79.0721 15.044C78.8908 15.428 78.8001 15.8867 78.8001 16.42C78.8001 17.2307 79.0028 17.8707 79.4081 18.34C79.8134 18.8093 80.3574 19.044 81.0401 19.044ZM90.7961 20.644C89.9428 20.644 89.2068 20.484 88.5881 20.164C87.9801 19.8333 87.5054 19.3693 87.1641 18.772C86.8334 18.164 86.6681 17.444 86.6681 16.612C86.6681 15.8013 86.8334 15.092 87.1641 14.484C87.4948 13.876 87.9481 13.4013 88.5241 13.06C89.1001 12.7187 89.7561 12.548 90.4921 12.548C91.0361 12.548 91.5214 12.6387 91.9481 12.82C92.3748 12.9907 92.7374 13.2467 93.0361 13.588C93.3454 13.9187 93.5748 14.324 93.7241 14.804C93.8841 15.284 93.9641 15.8227 93.9641 16.42C93.9641 16.6013 93.9108 16.74 93.8041 16.836C93.6974 16.9213 93.5374 16.964 93.3241 16.964H87.9481V15.972H92.8761L92.6041 16.196C92.6041 15.6627 92.5241 15.2093 92.3641 14.836C92.2148 14.4627 91.9854 14.18 91.6761 13.988C91.3774 13.7853 91.0041 13.684 90.5561 13.684C90.0548 13.684 89.6281 13.8013 89.2761 14.036C88.9348 14.2707 88.6734 14.596 88.4921 15.012C88.3108 15.428 88.2201 15.9133 88.2201 16.468V16.564C88.2201 17.5027 88.4388 18.212 88.8761 18.692C89.3241 19.1613 89.9694 19.396 90.8121 19.396C91.1321 19.396 91.4681 19.3533 91.8201 19.268C92.1828 19.1827 92.5241 19.0387 92.8441 18.836C93.0254 18.7293 93.1854 18.6813 93.3241 18.692C93.4734 18.7027 93.5908 18.7507 93.6761 18.836C93.7721 18.9213 93.8308 19.028 93.8521 19.156C93.8734 19.284 93.8521 19.4173 93.7881 19.556C93.7241 19.684 93.6121 19.8013 93.4521 19.908C93.0894 20.1533 92.6681 20.34 92.1881 20.468C91.7081 20.5853 91.2441 20.644 90.7961 20.644Z" fill="#3D9AD5"/>
<path d="M102.52 20.644C101.379 20.644 100.403 20.4093 99.5923 19.94C98.7817 19.4707 98.1577 18.804 97.7203 17.94C97.2937 17.0653 97.0803 16.036 97.0803 14.852C97.0803 13.9667 97.203 13.172 97.4483 12.468C97.6937 11.7533 98.0457 11.1453 98.5043 10.644C98.9737 10.132 99.5443 9.74267 100.216 9.476C100.899 9.20933 101.667 9.076 102.52 9.076C103.15 9.076 103.752 9.16133 104.328 9.332C104.915 9.50267 105.422 9.748 105.848 10.068C106.03 10.1853 106.147 10.3293 106.2 10.5C106.264 10.66 106.275 10.8147 106.232 10.964C106.2 11.1133 106.131 11.2413 106.024 11.348C105.918 11.444 105.779 11.4973 105.608 11.508C105.448 11.5187 105.272 11.46 105.08 11.332C104.728 11.0653 104.339 10.868 103.912 10.74C103.486 10.612 103.038 10.548 102.568 10.548C101.758 10.548 101.075 10.7187 100.52 11.06C99.9657 11.3907 99.5443 11.876 99.2563 12.516C98.9683 13.156 98.8243 13.9347 98.8243 14.852C98.8243 15.7693 98.9683 16.5533 99.2563 17.204C99.5443 17.844 99.9657 18.3347 100.52 18.676C101.075 19.0067 101.758 19.172 102.568 19.172C103.038 19.172 103.486 19.108 103.912 18.98C104.35 18.8413 104.76 18.6387 105.144 18.372C105.336 18.2547 105.507 18.2013 105.656 18.212C105.816 18.2227 105.95 18.276 106.056 18.372C106.163 18.468 106.232 18.5907 106.264 18.74C106.307 18.8787 106.302 19.028 106.248 19.188C106.206 19.3373 106.104 19.4653 105.944 19.572C105.507 19.924 104.99 20.1907 104.392 20.372C103.795 20.5533 103.171 20.644 102.52 20.644ZM110.93 20.644C110.141 20.644 109.458 20.4787 108.882 20.148C108.317 19.8173 107.874 19.348 107.554 18.74C107.234 18.132 107.074 17.4173 107.074 16.596C107.074 15.9667 107.165 15.4067 107.346 14.916C107.528 14.4253 107.784 14.004 108.114 13.652C108.456 13.2893 108.861 13.0173 109.33 12.836C109.81 12.644 110.344 12.548 110.93 12.548C111.709 12.548 112.381 12.7133 112.946 13.044C113.522 13.3747 113.97 13.844 114.29 14.452C114.61 15.0493 114.77 15.764 114.77 16.596C114.77 17.2147 114.68 17.7747 114.498 18.276C114.317 18.7773 114.056 19.204 113.714 19.556C113.384 19.908 112.978 20.18 112.498 20.372C112.029 20.5533 111.506 20.644 110.93 20.644ZM110.93 19.396C111.368 19.396 111.752 19.2893 112.082 19.076C112.413 18.8627 112.669 18.548 112.85 18.132C113.042 17.716 113.138 17.204 113.138 16.596C113.138 15.6787 112.936 14.9853 112.53 14.516C112.125 14.0467 111.592 13.812 110.93 13.812C110.482 13.812 110.093 13.9187 109.762 14.132C109.432 14.3347 109.17 14.644 108.978 15.06C108.797 15.476 108.706 15.988 108.706 16.596C108.706 17.5027 108.909 18.196 109.314 18.676C109.72 19.156 110.258 19.396 110.93 19.396ZM119.561 20.644C118.879 20.644 118.276 20.484 117.753 20.164C117.241 19.8333 116.841 19.364 116.553 18.756C116.265 18.1373 116.121 17.4173 116.121 16.596C116.121 15.7533 116.265 15.0333 116.553 14.436C116.841 13.8387 117.241 13.3747 117.753 13.044C118.276 12.7133 118.879 12.548 119.561 12.548C120.244 12.548 120.831 12.7187 121.321 13.06C121.823 13.3907 122.159 13.8387 122.329 14.404H122.153V9.924C122.153 9.65733 122.223 9.45467 122.361 9.316C122.5 9.17733 122.697 9.108 122.953 9.108C123.209 9.108 123.407 9.17733 123.545 9.316C123.695 9.45467 123.769 9.65733 123.769 9.924V19.796C123.769 20.052 123.7 20.2547 123.561 20.404C123.423 20.5427 123.225 20.612 122.969 20.612C122.713 20.612 122.516 20.5427 122.377 20.404C122.239 20.2547 122.169 20.052 122.169 19.796V18.388L122.345 18.74C122.175 19.316 121.839 19.78 121.337 20.132C120.847 20.4733 120.255 20.644 119.561 20.644ZM119.977 19.396C120.415 19.396 120.799 19.2893 121.129 19.076C121.46 18.8627 121.716 18.548 121.897 18.132C122.089 17.716 122.185 17.204 122.185 16.596C122.185 15.6787 121.983 14.9853 121.577 14.516C121.172 14.0467 120.639 13.812 119.977 13.812C119.529 13.812 119.14 13.9187 118.809 14.132C118.479 14.3347 118.217 14.644 118.025 15.06C117.844 15.476 117.753 15.988 117.753 16.596C117.753 17.5027 117.956 18.196 118.361 18.676C118.767 19.156 119.305 19.396 119.977 19.396ZM126.838 20.596C126.582 20.596 126.385 20.5213 126.246 20.372C126.108 20.212 126.038 19.9933 126.038 19.716V13.476C126.038 13.1987 126.108 12.9853 126.246 12.836C126.385 12.6867 126.582 12.612 126.838 12.612C127.094 12.612 127.292 12.6867 127.43 12.836C127.58 12.9853 127.654 13.1987 127.654 13.476V19.716C127.654 19.9933 127.585 20.212 127.446 20.372C127.308 20.5213 127.105 20.596 126.838 20.596ZM126.838 10.948C126.518 10.948 126.268 10.868 126.086 10.708C125.916 10.548 125.83 10.324 125.83 10.036C125.83 9.73733 125.916 9.51333 126.086 9.364C126.268 9.204 126.518 9.124 126.838 9.124C127.158 9.124 127.404 9.204 127.574 9.364C127.756 9.51333 127.846 9.73733 127.846 10.036C127.846 10.324 127.756 10.548 127.574 10.708C127.404 10.868 127.158 10.948 126.838 10.948ZM130.729 20.612C130.473 20.612 130.276 20.5427 130.137 20.404C129.998 20.2547 129.929 20.052 129.929 19.796V13.396C129.929 13.1293 129.998 12.9267 130.137 12.788C130.276 12.6493 130.468 12.58 130.713 12.58C130.969 12.58 131.161 12.6493 131.289 12.788C131.428 12.9267 131.497 13.1293 131.497 13.396V14.644L131.321 14.356C131.556 13.7587 131.924 13.3107 132.425 13.012C132.926 12.7027 133.502 12.548 134.153 12.548C134.772 12.548 135.284 12.6653 135.689 12.9C136.105 13.124 136.414 13.4707 136.617 13.94C136.82 14.3987 136.921 14.98 136.921 15.684V19.796C136.921 20.052 136.852 20.2547 136.713 20.404C136.574 20.5427 136.377 20.612 136.121 20.612C135.854 20.612 135.652 20.5427 135.513 20.404C135.374 20.2547 135.305 20.052 135.305 19.796V15.78C135.305 15.108 135.172 14.6173 134.905 14.308C134.649 13.9987 134.244 13.844 133.689 13.844C133.038 13.844 132.516 14.0467 132.121 14.452C131.737 14.8573 131.545 15.4013 131.545 16.084V19.796C131.545 20.34 131.273 20.612 130.729 20.612ZM142.684 23.524C142.108 23.524 141.548 23.4653 141.004 23.348C140.47 23.2307 139.985 23.0387 139.548 22.772C139.388 22.6867 139.281 22.58 139.228 22.452C139.174 22.3347 139.158 22.212 139.18 22.084C139.212 21.956 139.27 21.844 139.356 21.748C139.441 21.652 139.542 21.588 139.66 21.556C139.788 21.524 139.921 21.5453 140.06 21.62C140.529 21.876 140.972 22.0467 141.388 22.132C141.814 22.228 142.209 22.276 142.572 22.276C143.318 22.276 143.878 22.084 144.252 21.7C144.625 21.3267 144.812 20.772 144.812 20.036V18.404H144.956C144.796 18.9907 144.46 19.4547 143.948 19.796C143.436 20.1373 142.844 20.308 142.172 20.308C141.468 20.308 140.854 20.148 140.332 19.828C139.809 19.4973 139.404 19.044 139.116 18.468C138.828 17.8813 138.684 17.1987 138.684 16.42C138.684 15.8333 138.764 15.3053 138.924 14.836C139.094 14.3667 139.329 13.9613 139.628 13.62C139.937 13.2787 140.305 13.0173 140.732 12.836C141.169 12.644 141.649 12.548 142.172 12.548C142.854 12.548 143.446 12.7187 143.948 13.06C144.46 13.4013 144.79 13.8653 144.94 14.452L144.78 14.724V13.396C144.78 13.1293 144.849 12.9267 144.988 12.788C145.137 12.6493 145.334 12.58 145.58 12.58C145.836 12.58 146.033 12.6493 146.172 12.788C146.31 12.9267 146.38 13.1293 146.38 13.396V19.844C146.38 21.06 146.065 21.9773 145.436 22.596C144.806 23.2147 143.889 23.524 142.684 23.524ZM142.556 19.044C143.025 19.044 143.425 18.9373 143.756 18.724C144.086 18.5107 144.342 18.2067 144.524 17.812C144.705 17.4173 144.796 16.9533 144.796 16.42C144.796 15.62 144.593 14.9853 144.188 14.516C143.793 14.0467 143.249 13.812 142.556 13.812C142.097 13.812 141.702 13.9187 141.372 14.132C141.041 14.3453 140.78 14.6493 140.588 15.044C140.406 15.428 140.316 15.8867 140.316 16.42C140.316 17.2307 140.518 17.8707 140.924 18.34C141.329 18.8093 141.873 19.044 142.556 19.044Z" fill="#808386"/>
<path d="M149.872 23.38C149.68 23.38 149.515 23.3213 149.376 23.204C149.248 23.0867 149.184 22.9373 149.184 22.756C149.184 22.5853 149.238 22.436 149.344 22.308C149.462 22.1907 149.606 22.132 149.776 22.132H150.48C150.704 22.132 150.87 22.0733 150.976 21.956C151.083 21.8387 151.136 21.6627 151.136 21.428V18.036C151.136 17.7053 151.2 17.4067 151.328 17.14C151.467 16.8733 151.648 16.66 151.872 16.5C152.107 16.34 152.358 16.26 152.624 16.26V16.324C152.358 16.324 152.107 16.2493 151.872 16.1C151.648 15.94 151.467 15.7267 151.328 15.46C151.2 15.1827 151.136 14.884 151.136 14.564V11.172C151.136 10.9373 151.083 10.7613 150.976 10.644C150.87 10.5267 150.704 10.468 150.48 10.468H149.776C149.606 10.468 149.462 10.4093 149.344 10.292C149.238 10.164 149.184 10.0147 149.184 9.844C149.184 9.66267 149.248 9.51333 149.376 9.396C149.515 9.27867 149.68 9.22 149.872 9.22H150.992C151.376 9.22 151.696 9.28933 151.952 9.428C152.219 9.556 152.416 9.75333 152.544 10.02C152.683 10.2867 152.752 10.612 152.752 10.996V14.388C152.752 14.8147 152.838 15.1293 153.008 15.332C153.179 15.5347 153.472 15.6413 153.888 15.652C154.07 15.6627 154.208 15.732 154.304 15.86C154.4 15.9773 154.448 16.1267 154.448 16.308C154.448 16.468 154.4 16.612 154.304 16.74C154.208 16.868 154.07 16.932 153.888 16.932C153.472 16.9427 153.179 17.0493 153.008 17.252C152.838 17.4547 152.752 17.7747 152.752 18.212V21.604C152.752 22.18 152.603 22.6173 152.304 22.916C152.006 23.2253 151.568 23.38 150.992 23.38H149.872Z" fill="#3D9AD5"/>
<defs>
<linearGradient id="paint0_linear_1995_12027" x1="14.6787" y1="11.6333" x2="33.1483" y2="11.6333" gradientUnits="userSpaceOnUse">
<stop offset="0.1" stop-color="#1C69B2"/>
<stop offset="0.19" stop-color="#216EB6"/>
<stop offset="0.3" stop-color="#2E7EC1"/>
<stop offset="0.38" stop-color="#3E90CE"/>
</linearGradient>
<linearGradient id="paint1_linear_1995_12027" x1="0.00390625" y1="16.0003" x2="33.1486" y2="16.0003" gradientUnits="userSpaceOnUse">
<stop offset="0.1" stop-color="#1C69B2"/>
<stop offset="0.25" stop-color="#206EB6"/>
<stop offset="0.43" stop-color="#2B7DC0"/>
<stop offset="0.62" stop-color="#3D95D1"/>
<stop offset="0.73" stop-color="#3D99D4"/>
<stop offset="1" stop-color="#3C9ED8"/>
</linearGradient>
<clipPath id="clip0_1995_12027">
<rect width="33.1447" height="32" fill="white" transform="translate(0.00390625 0.00012207)"/>
</clipPath>
</defs>
</svg>
